<svg width="50" height="48" viewBox="0 0 50 48" fill="none" xmlns="http://www.w3.org/2000/svg">
<path d="M16.8594 5.25C10.579 5.25 5.46875 10.1587 5.46875 16.1895V31.8135C5.46875 37.8435 10.582 42.75 16.864 42.75H33.139C39.4203 42.75 44.5312 37.8413 44.5312 31.8105V16.1851C44.5312 10.1558 39.418 5.25 33.136 5.25H16.8594ZM36.7188 11.25C37.5812 11.25 38.2812 11.922 38.2812 12.75C38.2812 13.578 37.5812 14.25 36.7188 14.25C35.8563 14.25 35.1562 13.578 35.1562 12.75C35.1562 11.922 35.8563 11.25 36.7188 11.25ZM25 14.25C30.6016 14.25 35.1562 18.6225 35.1562 24C35.1562 29.3775 30.6008 33.75 25 33.75C19.3984 33.75 14.8438 29.3768 14.8438 24C14.8438 18.6233 19.3984 14.25 25 14.25ZM25 17.25C21.1164 17.25 17.9688 20.2717 17.9688 24C17.9688 27.7283 21.1164 30.75 25 30.75C28.8836 30.75 32.0312 27.7283 32.0312 24C32.0312 20.2717 28.8836 17.25 25 17.25Z" fill="white"/>
</svg>
