<svg width="48" height="48" viewBox="0 0 48 48" fill="none" xmlns="http://www.w3.org/2000/svg">
<path d="M23.9999 1.91998C11.8252 1.91998 1.91992 11.8243 1.91992 24C1.91992 36.1757 11.8252 46.08 23.9999 46.08C36.1746 46.08 46.0799 36.1757 46.0799 24C46.0799 11.8243 36.1746 1.91998 23.9999 1.91998ZM17.2799 33.6H13.4399V19.2H17.2799V33.6ZM15.3599 16.32C14.2991 16.32 13.4399 15.4608 13.4399 14.4C13.4399 13.3392 14.2991 12.48 15.3599 12.48C16.4207 12.48 17.2799 13.3392 17.2799 14.4C17.2799 15.4608 16.4207 16.32 15.3599 16.32ZM35.5199 33.6H31.6799V28.8V26.4C31.6799 24.552 30.1679 23.04 28.3199 23.04C26.4719 23.04 24.9599 24.552 24.9599 26.4V33.6H21.1199V19.2H24.9599V20.9433C26.0812 19.8662 27.6018 19.2 29.2799 19.2C32.7263 19.2 35.5199 21.9936 35.5199 25.44V33.6Z" fill="black"/>
</svg>
