<svg width="48" height="48" viewBox="0 0 48 48" fill="none" xmlns="http://www.w3.org/2000/svg">
<path fill-rule="evenodd" clip-rule="evenodd" d="M8 10C6.90457 10 6 10.9046 6 12V36C6 37.0954 6.90457 38 8 38H40C41.0954 38 42 37.0954 42 36V12C42 10.9046 41.0954 10 40 10H8ZM2 12C2 8.69543 4.69543 6 8 6H40C43.3046 6 46 8.69543 46 12V36C46 39.3046 43.3046 42 40 42H8C4.69543 42 2 39.3046 2 36V12Z" fill="#005275"/>
<path fill-rule="evenodd" clip-rule="evenodd" d="M2.36146 10.853C2.99489 9.9481 4.24195 9.72803 5.14685 10.3615L23.9999 23.5586L42.853 10.3615C43.7579 9.72803 45.005 9.9481 45.6384 10.853C46.2718 11.7579 46.0518 13.005 45.1469 13.6384L25.1469 27.6384C24.4582 28.1204 23.5416 28.1204 22.853 27.6384L2.853 13.6384C1.9481 13.005 1.72803 11.7579 2.36146 10.853Z" fill="#005275"/>
</svg>
